<?xml version="1.0" encoding="UTF-8"?>
<svg id="Camada_1" data-name="Camada 1" xmlns="http://www.w3.org/2000/svg" version="1.1" viewBox="0 0 1080 1080">
  <defs>
    <style>
      .cls-1 {
        fill: #fff;
        stroke-width: 0px;
      }
    </style>
  </defs>
  <path class="cls-1" d="M960.52,335.54c-2.24,0-4.32-.39-6.24-1.18-1.92-.79-3.58-1.88-4.99-3.27-1.4-1.39-2.5-3.03-3.29-4.92-.79-1.89-1.18-3.96-1.18-6.19s.39-4.26,1.18-6.15c.79-1.89,1.88-3.53,3.29-4.9,1.4-1.38,3.07-2.46,4.99-3.25,1.92-.79,4-1.18,6.24-1.18s4.36.39,6.28,1.18c1.92.79,3.58,1.87,4.99,3.25,1.4,1.38,2.5,3.01,3.29,4.9.79,1.89,1.18,3.94,1.18,6.15s-.39,4.3-1.18,6.19c-.79,1.89-1.89,3.53-3.29,4.92-1.41,1.39-3.07,2.48-4.99,3.27-1.92.79-4.01,1.18-6.28,1.18ZM960.52,334.34c2.04,0,3.93-.34,5.7-1.03,1.76-.69,3.29-1.66,4.58-2.92,1.29-1.26,2.31-2.76,3.05-4.49.75-1.73,1.12-3.66,1.12-5.78s-.36-3.98-1.08-5.74c-.72-1.76-1.72-3.29-3.01-4.58s-2.82-2.29-4.58-3.01c-1.76-.72-3.69-1.08-5.78-1.08s-3.98.36-5.74,1.08c-1.76.72-3.28,1.71-4.56,2.99-1.28,1.28-2.28,2.79-3.01,4.54-.73,1.75-1.1,3.66-1.1,5.72s.36,3.93,1.08,5.68c.72,1.75,1.72,3.26,3.01,4.54,1.29,1.28,2.82,2.28,4.58,3.01,1.76.73,3.68,1.1,5.74,1.1ZM960.82,329.91c-1.23,0-2.44-.23-3.61-.69-1.18-.46-2.22-1.12-3.14-1.98-.92-.86-1.66-1.91-2.21-3.14-.56-1.23-.84-2.61-.84-4.13,0-1.18.19-2.36.58-3.55.39-1.19.97-2.26,1.74-3.23.77-.96,1.76-1.74,2.97-2.34s2.62-.9,4.26-.9c1.78,0,3.38.39,4.82,1.16,1.43.77,2.45,1.92,3.05,3.44l-2.06.69c-.32-.69-.71-1.25-1.18-1.7-.47-.44-.98-.79-1.53-1.03s-1.09-.41-1.63-.49c-.54-.09-1.03-.13-1.46-.13-1.26,0-2.35.24-3.27.73-.92.49-1.68,1.12-2.28,1.89-.6.77-1.05,1.64-1.35,2.6-.3.96-.45,1.91-.45,2.86,0,1.29.24,2.43.71,3.42.47.99,1.08,1.82,1.81,2.49.73.67,1.53,1.19,2.41,1.55.87.36,1.73.54,2.56.54.54,0,1.12-.08,1.74-.24.62-.16,1.2-.39,1.76-.69.56-.3,1.06-.67,1.5-1.12.44-.44.78-.94,1.01-1.48l2.06.6c-.17.49-.48,1.01-.92,1.57-.45.56-1.01,1.08-1.7,1.57-.69.49-1.48.9-2.39,1.23-.9.33-1.88.49-2.95.49Z"/>
  <g>
    <path class="cls-1" d="M307.02,270.16c-120.35,0-217.9,97.56-217.9,217.9s97.56,217.9,217.9,217.9,217.9-97.56,217.9-217.9-97.56-217.9-217.9-217.9ZM307.02,552.84c-35.77,0-64.77-29-64.77-64.77s29-64.77,64.77-64.77,64.77,29,64.77,64.77-29,64.77-64.77,64.77Z"/>
    <path class="cls-1" d="M772.98,270.16c-120.35,0-217.9,97.56-217.9,217.9s97.56,217.9,217.9,217.9,217.9-97.56,217.9-217.9-97.56-217.9-217.9-217.9ZM772.98,552.84c-35.77,0-64.77-29-64.77-64.77s29-64.77,64.77-64.77,64.77,29,64.77,64.77-29,64.77-64.77,64.77Z"/>
  </g>
  <g>
    <path class="cls-1" d="M313.86,776.15c-1.93-2.15-4.65-3.22-8.16-3.22-2.9,0-5.01.55-6.34,1.65-1.33,1.1-1.99,2.59-1.99,4.46,0,.95.17,1.74.5,2.36.33.63.86,1.16,1.57,1.61s1.61.82,2.7,1.13c1.09.31,2.4.63,3.93.96,1.59.33,3.03.7,4.33,1.11s2.4.91,3.31,1.53c.91.61,1.6,1.37,2.09,2.26.49.89.73,1.99.73,3.31s-.26,2.45-.77,3.43c-.52.98-1.24,1.79-2.18,2.45s-2.05,1.15-3.35,1.49c-1.3.33-2.74.5-4.33.5-4.63,0-8.55-1.48-11.76-4.44l1.13-1.71c1.26,1.31,2.79,2.35,4.6,3.12s3.85,1.15,6.11,1.15c2.59,0,4.62-.47,6.09-1.42,1.47-.95,2.2-2.38,2.2-4.31,0-.98-.2-1.81-.59-2.49-.39-.68-.97-1.28-1.74-1.78-.77-.5-1.74-.94-2.91-1.3-1.17-.36-2.54-.71-4.1-1.05-1.59-.33-2.99-.69-4.21-1.07-1.21-.38-2.23-.85-3.05-1.42s-1.44-1.26-1.86-2.07c-.42-.81-.63-1.83-.63-3.05,0-1.34.26-2.53.78-3.56.51-1.03,1.23-1.9,2.15-2.62.92-.71,2.02-1.25,3.31-1.61,1.28-.36,2.71-.54,4.27-.54,1.93,0,3.64.29,5.15.86,1.51.57,2.87,1.44,4.1,2.62l-1.09,1.67Z"/>
    <path class="cls-1" d="M330.72,799.88c-.11.06-.3.16-.57.31-.27.15-.6.3-1,.44-.4.14-.86.27-1.36.38s-1.05.17-1.63.17-1.14-.08-1.65-.25-.97-.42-1.36-.75c-.39-.33-.7-.74-.92-1.21-.22-.47-.33-1.03-.33-1.67v-16.4h-3.05v-1.72h3.05v-7.45h2.09v7.45h5.06v1.72h-5.06v15.9c0,.81.28,1.42.84,1.82.56.4,1.19.61,1.88.61.86,0,1.61-.15,2.24-.44.63-.29,1.01-.48,1.15-.56l.63,1.67Z"/>
    <path class="cls-1" d="M344.7,781.05c-1.95.06-3.66.64-5.13,1.74-1.47,1.1-2.49,2.61-3.08,4.54v13.6h-2.09v-21.76h2.01v5.36c.75-1.53,1.75-2.78,2.99-3.75,1.24-.96,2.57-1.51,4-1.65.28-.03.53-.04.75-.04h.54v1.97Z"/>
    <path class="cls-1" d="M356.83,801.34c-1.54,0-2.96-.3-4.27-.9-1.31-.6-2.45-1.42-3.41-2.47s-1.72-2.25-2.26-3.62c-.54-1.37-.82-2.83-.82-4.39s.27-2.98.82-4.33c.54-1.35,1.29-2.54,2.24-3.56.95-1.02,2.07-1.82,3.37-2.41s2.7-.88,4.21-.88,2.96.3,4.27.9,2.44,1.41,3.39,2.43c.95,1.02,1.69,2.2,2.22,3.56.53,1.35.8,2.78.8,4.29v.52c0,.21-.01.34-.04.4h-19.08c.08,1.26.38,2.42.88,3.5.5,1.07,1.14,2,1.9,2.78.77.78,1.65,1.4,2.66,1.84s2.08.67,3.22.67c.75,0,1.49-.1,2.22-.31.72-.21,1.4-.49,2.03-.86.63-.36,1.19-.8,1.67-1.32.49-.52.87-1.08,1.15-1.69l1.84.5c-.31.78-.76,1.5-1.36,2.16-.6.66-1.3,1.22-2.09,1.69s-1.67.84-2.62,1.11c-.95.26-1.93.4-2.93.4ZM365.37,789.21c-.08-1.28-.37-2.45-.86-3.52-.49-1.06-1.12-1.97-1.88-2.74-.77-.77-1.65-1.37-2.66-1.8-1-.43-2.08-.65-3.22-.65s-2.22.22-3.22.65c-1,.43-1.89,1.03-2.66,1.8-.77.77-1.38,1.69-1.84,2.76-.46,1.07-.73,2.24-.82,3.49h17.16Z"/>
    <path class="cls-1" d="M377.34,801.34c-1,0-1.94-.18-2.8-.52-.87-.35-1.63-.82-2.28-1.42-.66-.6-1.17-1.31-1.53-2.13-.36-.82-.54-1.71-.54-2.66s.22-1.81.67-2.59,1.07-1.46,1.86-2.03c.79-.57,1.75-1.02,2.87-1.34,1.11-.32,2.34-.48,3.68-.48,1.17,0,2.35.1,3.54.31,1.18.21,2.25.5,3.2.86v-2.13c0-2.06-.59-3.7-1.76-4.92-1.17-1.21-2.76-1.82-4.77-1.82-1.06,0-2.18.22-3.37.67-1.19.45-2.39,1.09-3.62,1.92l-.8-1.42c2.79-1.9,5.44-2.85,7.95-2.85s4.69.76,6.19,2.28,2.26,3.62,2.26,6.3v10.63c0,.7.31,1.05.92,1.05v1.88c-.14.03-.29.05-.44.06-.15.01-.29.02-.4.02-.56,0-1-.19-1.34-.57-.33-.38-.53-.83-.59-1.36v-1.8c-1,1.31-2.29,2.32-3.85,3.01s-3.25,1.05-5.06,1.05ZM377.76,799.67c1.62,0,3.1-.31,4.46-.92,1.35-.61,2.39-1.42,3.12-2.43.45-.59.67-1.14.67-1.67v-3.85c-1-.39-2.05-.68-3.14-.88s-2.22-.29-3.39-.29c-1.09,0-2.08.12-2.97.36-.89.24-1.66.56-2.3.98-.64.42-1.14.93-1.49,1.53-.35.6-.52,1.26-.52,1.99s.14,1.41.42,2.05c.28.64.67,1.19,1.17,1.65.5.46,1.09.82,1.78,1.09.68.27,1.42.4,2.2.4Z"/>
    <path class="cls-1" d="M426.43,800.92h-2.09v-12.14c0-2.76-.43-4.8-1.28-6.11-.85-1.31-2.16-1.97-3.91-1.97-.89,0-1.74.17-2.55.5-.81.33-1.55.8-2.22,1.4s-1.25,1.31-1.74,2.13c-.49.82-.87,1.74-1.15,2.74v13.43h-2.09v-12.14c0-2.79-.42-4.83-1.26-6.13-.84-1.3-2.13-1.95-3.89-1.95-.89,0-1.74.16-2.53.48-.79.32-1.53.78-2.2,1.38s-1.26,1.31-1.78,2.13c-.52.82-.91,1.74-1.19,2.74v13.47h-2.09v-21.76h1.97v5.19c.89-1.76,2.06-3.12,3.52-4.1,1.45-.98,3.05-1.46,4.81-1.46s3.33.54,4.48,1.63c1.14,1.09,1.83,2.51,2.05,4.27,2.06-3.93,4.91-5.9,8.54-5.9,2.37,0,4.07.84,5.08,2.53,1.02,1.69,1.53,4.05,1.53,7.09v12.51Z"/>
    <path class="cls-1" d="M432.28,800.92v-3.56h1.84v3.56h-1.84Z"/>
    <path class="cls-1" d="M451.53,800.92v-29.71h9.88c2.34,0,4.4.39,6.17,1.17,1.77.78,3.24,1.84,4.41,3.18,1.17,1.34,2.05,2.91,2.64,4.71s.88,3.72.88,5.75c0,2.26-.33,4.3-.98,6.13s-1.6,3.39-2.82,4.69c-1.23,1.3-2.71,2.3-4.46,3.01s-3.69,1.07-5.84,1.07h-9.88ZM473.38,786.03c0-1.87-.27-3.59-.8-5.17-.53-1.58-1.3-2.94-2.32-4.08-1.02-1.14-2.27-2.04-3.75-2.68s-3.18-.96-5.1-.96h-7.74v25.86h7.74c1.95,0,3.67-.33,5.17-.98s2.74-1.57,3.75-2.74c1-1.17,1.76-2.55,2.28-4.12.52-1.58.77-3.29.77-5.13Z"/>
    <path class="cls-1" d="M480.74,774.22v-3.85h2.09v3.85h-2.09ZM480.74,800.92v-21.76h2.09v21.76h-2.09Z"/>
    <path class="cls-1" d="M496.31,801.34c-1.67,0-3.28-.28-4.81-.84-1.54-.56-2.87-1.39-4.02-2.51l1.05-1.42c1.17,1.06,2.39,1.84,3.64,2.34,1.26.5,2.64.75,4.14.75,1.9,0,3.42-.4,4.58-1.19,1.16-.8,1.74-1.9,1.74-3.33,0-.67-.15-1.23-.44-1.69-.29-.46-.73-.85-1.32-1.17s-1.31-.61-2.18-.86-1.87-.52-3.01-.8c-1.23-.28-2.3-.56-3.2-.84-.91-.28-1.65-.61-2.24-1-.59-.39-1.02-.86-1.32-1.42-.29-.56-.44-1.27-.44-2.13,0-1.09.21-2.04.63-2.85.42-.81,1-1.48,1.74-2.01.74-.53,1.59-.93,2.55-1.19.96-.27,1.99-.4,3.07-.4,1.7,0,3.21.29,4.52.86s2.33,1.3,3.05,2.2l-1.17,1.13c-.73-.84-1.67-1.47-2.83-1.88-1.16-.42-2.39-.63-3.7-.63-.81,0-1.57.08-2.28.25-.71.17-1.33.43-1.86.8-.53.36-.95.83-1.26,1.4-.31.57-.46,1.25-.46,2.03,0,.64.11,1.16.31,1.55.21.39.54.73,1,1,.46.28,1.05.52,1.78.73.72.21,1.59.44,2.59.69,1.37.33,2.58.66,3.64.96,1.06.31,1.95.68,2.66,1.13.71.45,1.26.98,1.63,1.59.38.61.56,1.4.56,2.34,0,1.95-.76,3.51-2.28,4.67-1.52,1.16-3.55,1.74-6.09,1.74Z"/>
    <path class="cls-1" d="M508.03,789.96c0-1.53.27-2.98.8-4.35.53-1.37,1.27-2.55,2.22-3.56.95-1,2.08-1.8,3.39-2.39,1.31-.59,2.75-.88,4.31-.88,1.98,0,3.72.45,5.23,1.34,1.51.89,2.64,2.14,3.39,3.72l-2.05.67c-.64-1.2-1.56-2.14-2.74-2.83-1.19-.68-2.49-1.02-3.91-1.02-1.2,0-2.32.24-3.35.71-1.03.47-1.93,1.13-2.7,1.97-.77.84-1.38,1.82-1.82,2.95-.45,1.13-.67,2.35-.67,3.66s.23,2.55.69,3.7c.46,1.16,1.07,2.16,1.84,3.01.77.85,1.67,1.53,2.72,2.03s2.16.75,3.33.75c.75,0,1.5-.11,2.24-.33.74-.22,1.42-.52,2.05-.88.63-.36,1.17-.79,1.63-1.28s.77-1,.94-1.53l2.05.59c-.28.75-.7,1.46-1.28,2.11s-1.25,1.22-2.03,1.69-1.65.84-2.59,1.11c-.95.26-1.93.4-2.93.4-1.54,0-2.96-.3-4.27-.9-1.31-.6-2.45-1.42-3.41-2.47s-1.72-2.25-2.26-3.62c-.54-1.37-.82-2.83-.82-4.39Z"/>
    <path class="cls-1" d="M532.5,770.37h2.14v26.24c0,.81.23,1.45.69,1.93s1.09.71,1.9.71c.31,0,.68-.04,1.11-.11.43-.07.83-.17,1.19-.31l.42,1.67c-.47.2-1.06.36-1.76.48-.7.13-1.3.19-1.8.19-1.17,0-2.11-.36-2.83-1.07-.71-.71-1.07-1.67-1.07-2.87v-26.87Z"/>
    <path class="cls-1" d="M552.3,801.34c-1.54,0-2.95-.3-4.25-.9-1.3-.6-2.42-1.42-3.37-2.45-.95-1.03-1.69-2.23-2.22-3.6-.53-1.37-.8-2.8-.8-4.31s.27-2.98.82-4.35c.54-1.37,1.29-2.57,2.24-3.6.95-1.03,2.07-1.85,3.37-2.45s2.7-.9,4.21-.9,2.9.3,4.19.9c1.28.6,2.41,1.42,3.37,2.45.96,1.03,1.72,2.23,2.26,3.6.54,1.37.82,2.82.82,4.35s-.27,2.94-.82,4.31c-.54,1.37-1.29,2.57-2.24,3.6-.95,1.03-2.07,1.85-3.37,2.45-1.3.6-2.7.9-4.21.9ZM543.76,790.17c0,1.28.22,2.49.67,3.62.45,1.13,1.05,2.11,1.82,2.95.77.84,1.67,1.5,2.7,1.99s2.13.73,3.31.73,2.27-.24,3.31-.73c1.03-.49,1.94-1.16,2.72-2.03.78-.86,1.39-1.86,1.84-2.99.45-1.13.67-2.35.67-3.66s-.22-2.49-.67-3.62c-.45-1.13-1.06-2.12-1.84-2.97-.78-.85-1.68-1.53-2.7-2.03-1.02-.5-2.11-.75-3.28-.75s-2.27.25-3.31.75c-1.03.5-1.93,1.19-2.7,2.05-.77.87-1.38,1.88-1.84,3.03-.46,1.16-.69,2.38-.69,3.66Z"/>
    <path class="cls-1" d="M574.85,801.34c-1.67,0-3.28-.28-4.81-.84-1.54-.56-2.87-1.39-4.02-2.51l1.05-1.42c1.17,1.06,2.39,1.84,3.64,2.34,1.26.5,2.64.75,4.14.75,1.9,0,3.42-.4,4.58-1.19,1.16-.8,1.74-1.9,1.74-3.33,0-.67-.15-1.23-.44-1.69-.29-.46-.73-.85-1.32-1.17s-1.31-.61-2.18-.86-1.87-.52-3.01-.8c-1.23-.28-2.3-.56-3.2-.84-.91-.28-1.65-.61-2.24-1-.59-.39-1.02-.86-1.32-1.42-.29-.56-.44-1.27-.44-2.13,0-1.09.21-2.04.63-2.85.42-.81,1-1.48,1.74-2.01.74-.53,1.59-.93,2.55-1.19.96-.27,1.99-.4,3.07-.4,1.7,0,3.21.29,4.52.86s2.33,1.3,3.05,2.2l-1.17,1.13c-.73-.84-1.67-1.47-2.83-1.88-1.16-.42-2.39-.63-3.7-.63-.81,0-1.57.08-2.28.25-.71.17-1.33.43-1.86.8-.53.36-.95.83-1.26,1.4-.31.57-.46,1.25-.46,2.03,0,.64.11,1.16.31,1.55.21.39.54.73,1,1,.46.28,1.05.52,1.78.73.72.21,1.59.44,2.59.69,1.37.33,2.58.66,3.64.96,1.06.31,1.95.68,2.66,1.13.71.45,1.26.98,1.63,1.59.38.61.56,1.4.56,2.34,0,1.95-.76,3.51-2.28,4.67-1.52,1.16-3.55,1.74-6.09,1.74Z"/>
    <path class="cls-1" d="M597.33,801.34c-1.54,0-2.96-.3-4.27-.9-1.31-.6-2.45-1.42-3.41-2.47s-1.72-2.25-2.26-3.62c-.54-1.37-.82-2.83-.82-4.39s.27-2.98.82-4.33c.54-1.35,1.29-2.54,2.24-3.56.95-1.02,2.07-1.82,3.37-2.41s2.7-.88,4.21-.88,2.96.3,4.27.9,2.44,1.41,3.39,2.43c.95,1.02,1.69,2.2,2.22,3.56.53,1.35.8,2.78.8,4.29v.52c0,.21-.01.34-.04.4h-19.08c.08,1.26.38,2.42.88,3.5.5,1.07,1.14,2,1.9,2.78.77.78,1.65,1.4,2.66,1.84s2.08.67,3.22.67c.75,0,1.49-.1,2.22-.31.72-.21,1.4-.49,2.03-.86.63-.36,1.19-.8,1.67-1.32.49-.52.87-1.08,1.15-1.69l1.84.5c-.31.78-.76,1.5-1.36,2.16-.6.66-1.3,1.22-2.09,1.69s-1.67.84-2.62,1.11c-.95.26-1.93.4-2.93.4ZM605.86,789.21c-.08-1.28-.37-2.45-.86-3.52-.49-1.06-1.12-1.97-1.88-2.74-.77-.77-1.65-1.37-2.66-1.8-1-.43-2.08-.65-3.22-.65s-2.22.22-3.22.65c-1,.43-1.89,1.03-2.66,1.8-.77.77-1.38,1.69-1.84,2.76-.46,1.07-.73,2.24-.82,3.49h17.16Z"/>
    <path class="cls-1" d="M612.01,800.92v-3.56h1.84v3.56h-1.84Z"/>
    <path class="cls-1" d="M631.26,800.92v-29.71h12.35c1.25,0,2.41.27,3.47.8s1.97,1.23,2.74,2.11c.77.88,1.37,1.87,1.8,2.97.43,1.1.65,2.21.65,3.33s-.17,2.14-.5,3.16c-.33,1.02-.81,1.93-1.42,2.74-.61.81-1.35,1.48-2.22,2.01-.87.53-1.81.88-2.85,1.05l7.41,11.55h-2.47l-7.2-11.22h-9.63v11.22h-2.13ZM633.4,787.74h10.42c.95,0,1.81-.21,2.6-.63.78-.42,1.45-.97,2.01-1.65.56-.68.98-1.46,1.28-2.34.29-.88.44-1.78.44-2.7s-.17-1.86-.52-2.74c-.35-.88-.82-1.65-1.42-2.32-.6-.67-1.3-1.21-2.09-1.61-.79-.4-1.65-.61-2.57-.61h-10.13v14.6Z"/>
    <path class="cls-1" d="M666.41,801.34c-1.54,0-2.96-.3-4.27-.9-1.31-.6-2.45-1.42-3.41-2.47s-1.72-2.25-2.26-3.62c-.54-1.37-.82-2.83-.82-4.39s.27-2.98.82-4.33c.54-1.35,1.29-2.54,2.24-3.56.95-1.02,2.07-1.82,3.37-2.41s2.7-.88,4.21-.88,2.96.3,4.27.9,2.44,1.41,3.39,2.43c.95,1.02,1.69,2.2,2.22,3.56.53,1.35.8,2.78.8,4.29v.52c0,.21-.01.34-.04.4h-19.08c.08,1.26.38,2.42.88,3.5.5,1.07,1.14,2,1.9,2.78.77.78,1.65,1.4,2.66,1.84s2.08.67,3.22.67c.75,0,1.49-.1,2.22-.31.72-.21,1.4-.49,2.03-.86.63-.36,1.19-.8,1.67-1.32.49-.52.87-1.08,1.15-1.69l1.84.5c-.31.78-.76,1.5-1.36,2.16-.6.66-1.3,1.22-2.09,1.69s-1.67.84-2.62,1.11c-.95.26-1.93.4-2.93.4ZM674.95,789.21c-.08-1.28-.37-2.45-.86-3.52-.49-1.06-1.12-1.97-1.88-2.74-.77-.77-1.65-1.37-2.66-1.8-1-.43-2.08-.65-3.22-.65s-2.22.22-3.22.65c-1,.43-1.89,1.03-2.66,1.8-.77.77-1.38,1.69-1.84,2.76-.46,1.07-.73,2.24-.82,3.49h17.16Z"/>
    <path class="cls-1" d="M692.19,801.34c-1.87,0-3.54-.5-5-1.49-1.46-.99-2.64-2.2-3.54-3.62v13.6h-2.09v-30.67h1.92v4.35c.89-1.39,2.07-2.53,3.54-3.41,1.47-.88,3.03-1.32,4.71-1.32,1.51,0,2.9.32,4.19.96,1.28.64,2.38,1.49,3.31,2.53s1.64,2.25,2.16,3.62c.52,1.37.77,2.76.77,4.18,0,1.51-.24,2.94-.71,4.31-.47,1.37-1.15,2.57-2.03,3.6-.88,1.03-1.93,1.85-3.16,2.45-1.23.6-2.58.9-4.06.9ZM691.69,799.46c1.26,0,2.4-.26,3.43-.79,1.03-.53,1.91-1.23,2.64-2.11.73-.88,1.28-1.88,1.67-3.01.39-1.13.59-2.28.59-3.45,0-1.25-.22-2.45-.67-3.58-.45-1.13-1.07-2.13-1.86-2.99-.79-.86-1.72-1.55-2.78-2.07-1.06-.52-2.19-.77-3.39-.77-.75,0-1.56.16-2.41.48s-1.65.75-2.41,1.3c-.75.54-1.4,1.16-1.92,1.86-.53.7-.84,1.44-.92,2.22v7.16c.36.81.82,1.56,1.38,2.26.56.7,1.18,1.31,1.88,1.84.7.53,1.45.94,2.26,1.23.81.29,1.65.44,2.51.44Z"/>
    <path class="cls-1" d="M716.42,801.34c-1.54,0-2.96-.3-4.27-.9-1.31-.6-2.45-1.42-3.41-2.47s-1.72-2.25-2.26-3.62c-.54-1.37-.82-2.83-.82-4.39s.27-2.98.82-4.33c.54-1.35,1.29-2.54,2.24-3.56.95-1.02,2.07-1.82,3.37-2.41s2.7-.88,4.21-.88,2.96.3,4.27.9,2.44,1.41,3.39,2.43c.95,1.02,1.69,2.2,2.22,3.56.53,1.35.8,2.78.8,4.29v.52c0,.21-.01.34-.04.4h-19.08c.08,1.26.38,2.42.88,3.5.5,1.07,1.14,2,1.9,2.78.77.78,1.65,1.4,2.66,1.84s2.08.67,3.22.67c.75,0,1.49-.1,2.22-.31.72-.21,1.4-.49,2.03-.86.63-.36,1.19-.8,1.67-1.32.49-.52.87-1.08,1.15-1.69l1.84.5c-.31.78-.76,1.5-1.36,2.16-.6.66-1.3,1.22-2.09,1.69s-1.67.84-2.62,1.11c-.95.26-1.93.4-2.93.4ZM724.96,789.21c-.08-1.28-.37-2.45-.86-3.52-.49-1.06-1.12-1.97-1.88-2.74-.77-.77-1.65-1.37-2.66-1.8-1-.43-2.08-.65-3.22-.65s-2.22.22-3.22.65c-1,.43-1.89,1.03-2.66,1.8-.77.77-1.38,1.69-1.84,2.76-.46,1.07-.73,2.24-.82,3.49h17.16Z"/>
    <path class="cls-1" d="M736.93,801.34c-1,0-1.94-.18-2.8-.52-.87-.35-1.63-.82-2.28-1.42-.66-.6-1.17-1.31-1.53-2.13-.36-.82-.54-1.71-.54-2.66s.22-1.81.67-2.59,1.07-1.46,1.86-2.03c.79-.57,1.75-1.02,2.87-1.34,1.11-.32,2.34-.48,3.68-.48,1.17,0,2.35.1,3.54.31,1.18.21,2.25.5,3.2.86v-2.13c0-2.06-.59-3.7-1.76-4.92-1.17-1.21-2.76-1.82-4.77-1.82-1.06,0-2.18.22-3.37.67-1.19.45-2.39,1.09-3.62,1.92l-.8-1.42c2.79-1.9,5.44-2.85,7.95-2.85s4.69.76,6.19,2.28,2.26,3.62,2.26,6.3v10.63c0,.7.31,1.05.92,1.05v1.88c-.14.03-.29.05-.44.06-.15.01-.29.02-.4.02-.56,0-1-.19-1.34-.57-.33-.38-.53-.83-.59-1.36v-1.8c-1,1.31-2.29,2.32-3.85,3.01s-3.25,1.05-5.06,1.05ZM737.34,799.67c1.62,0,3.1-.31,4.46-.92,1.35-.61,2.39-1.42,3.12-2.43.45-.59.67-1.14.67-1.67v-3.85c-1-.39-2.05-.68-3.14-.88s-2.22-.29-3.39-.29c-1.09,0-2.08.12-2.97.36-.89.24-1.66.56-2.3.98-.64.42-1.14.93-1.49,1.53-.35.6-.52,1.26-.52,1.99s.14,1.41.42,2.05c.28.64.67,1.19,1.17,1.65.5.46,1.09.82,1.78,1.09.68.27,1.42.4,2.2.4Z"/>
    <path class="cls-1" d="M763.58,799.88c-.11.06-.3.16-.57.31-.27.15-.6.3-1,.44-.4.14-.86.27-1.36.38s-1.05.17-1.63.17-1.14-.08-1.65-.25-.97-.42-1.36-.75c-.39-.33-.7-.74-.92-1.21-.22-.47-.33-1.03-.33-1.67v-16.4h-3.05v-1.72h3.05v-7.45h2.09v7.45h5.06v1.72h-5.06v15.9c0,.81.28,1.42.84,1.82.56.4,1.19.61,1.88.61.86,0,1.61-.15,2.24-.44.63-.29,1.01-.48,1.15-.56l.63,1.67Z"/>
  </g>
</svg>