<?xml version="1.0" encoding="UTF-8"?>
<svg xmlns="http://www.w3.org/2000/svg" version="1.1" viewBox="0 0 1080 1080">
  <defs>
    <style>
      .cls-1 {
        isolation: isolate;
      }

      .cls-2 {
        mix-blend-mode: overlay;
        opacity: .1;
      }

      .cls-3 {
        fill: #fff;
        stroke-width: 0px;
      }
    </style>
  </defs>
  <g class="cls-1">
    <g id="Camada_1" data-name="Camada 1">
      <g class="cls-2">
        <path class="cls-3" d="M540.33,516.51c-13.21,0-23.96,10.74-23.96,23.96s10.74,23.96,23.96,23.96,23.96-10.74,23.96-23.96-10.74-23.96-23.96-23.96ZM540.33,567.94c-15.15,0-27.48-12.32-27.48-27.48s12.33-27.48,27.48-27.48,27.48,12.32,27.48,27.48-12.33,27.48-27.48,27.48Z"/>
        <path class="cls-3" d="M540.33,501.75c-21.35,0-38.71,17.36-38.71,38.71s17.36,38.71,38.71,38.71,38.71-17.36,38.71-38.71-17.36-38.71-38.71-38.71ZM540.33,582.69c-23.28,0-42.23-18.94-42.23-42.23s18.95-42.23,42.23-42.23,42.23,18.94,42.23,42.23-18.95,42.23-42.23,42.23Z"/>
        <path class="cls-3" d="M540.33,487c-29.48,0-53.46,23.98-53.46,53.46s23.98,53.46,53.46,53.46,53.46-23.98,53.46-53.46-23.98-53.46-53.46-53.46ZM540.33,597.44c-31.42,0-56.98-25.56-56.98-56.98s25.57-56.98,56.98-56.98,56.98,25.56,56.98,56.98-25.57,56.98-56.98,56.98Z"/>
        <path class="cls-3" d="M540.33,472.25c-37.61,0-68.21,30.6-68.21,68.21s30.6,68.21,68.21,68.21,68.21-30.6,68.21-68.21-30.59-68.21-68.21-68.21ZM540.33,612.19c-39.55,0-71.73-32.18-71.73-71.73s32.18-71.73,71.73-71.73,71.73,32.18,71.73,71.73-32.18,71.73-71.73,71.73Z"/>
        <path class="cls-3" d="M540.33,457.5c-45.75,0-82.96,37.21-82.96,82.96s37.21,82.96,82.96,82.96,82.96-37.21,82.96-82.96-37.21-82.96-82.96-82.96ZM540.33,626.94c-47.68,0-86.48-38.79-86.48-86.48s38.8-86.48,86.48-86.48,86.48,38.79,86.48,86.48-38.8,86.48-86.48,86.48Z"/>
        <path class="cls-3" d="M540.33,442.75c-53.88,0-97.71,43.83-97.71,97.71s43.83,97.71,97.71,97.71,97.71-43.83,97.71-97.71-43.83-97.71-97.71-97.71ZM540.33,641.69c-55.82,0-101.23-45.41-101.23-101.23s45.42-101.23,101.23-101.23,101.23,45.41,101.23,101.23-45.42,101.23-101.23,101.23Z"/>
        <path class="cls-3" d="M540.33,428c-62.01,0-112.46,50.45-112.46,112.46s50.45,112.46,112.46,112.46,112.46-50.45,112.46-112.46-50.45-112.46-112.46-112.46ZM540.33,656.45c-63.95,0-115.99-52.03-115.99-115.98s52.03-115.99,115.99-115.99,115.98,52.03,115.98,115.99-52.03,115.98-115.98,115.98Z"/>
        <path class="cls-3" d="M540.33,413.25c-70.15,0-127.21,57.06-127.21,127.21s57.07,127.21,127.21,127.21,127.21-57.06,127.21-127.21-57.06-127.21-127.21-127.21ZM540.33,671.2c-72.09,0-130.74-58.64-130.74-130.74s58.65-130.74,130.74-130.74,130.73,58.64,130.73,130.74-58.65,130.74-130.73,130.74Z"/>
        <path class="cls-3" d="M540.33,398.5c-78.28,0-141.96,63.68-141.96,141.96s63.68,141.96,141.96,141.96,141.96-63.68,141.96-141.96-63.68-141.96-141.96-141.96ZM540.33,685.95c-80.22,0-145.49-65.26-145.49-145.49s65.27-145.49,145.49-145.49,145.48,65.26,145.48,145.49-65.27,145.49-145.48,145.49Z"/>
        <path class="cls-3" d="M540.33,383.75c-86.41,0-156.72,70.3-156.72,156.72s70.3,156.71,156.72,156.71,156.71-70.3,156.71-156.71-70.3-156.72-156.71-156.72ZM540.33,700.7c-88.35,0-160.24-71.88-160.24-160.24s71.89-160.24,160.24-160.24,160.23,71.88,160.23,160.24-71.89,160.24-160.23,160.24Z"/>
        <path class="cls-3" d="M540.33,368.99c-94.55,0-171.47,76.92-171.47,171.47s76.92,171.46,171.47,171.46,171.46-76.92,171.46-171.46-76.91-171.47-171.46-171.47ZM540.33,715.45c-96.49,0-174.99-78.5-174.99-174.99s78.5-174.99,174.99-174.99,174.99,78.5,174.99,174.99-78.5,174.99-174.99,174.99Z"/>
        <path class="cls-3" d="M540.33,354.24c-102.68,0-186.22,83.53-186.22,186.22s83.54,186.22,186.22,186.22,186.21-83.53,186.21-186.22-83.53-186.22-186.21-186.22ZM540.33,730.2c-104.62,0-189.74-85.11-189.74-189.74s85.12-189.74,189.74-189.74,189.74,85.11,189.74,189.74-85.12,189.74-189.74,189.74Z"/>
        <path class="cls-3" d="M540.33,339.49c-110.81,0-200.97,90.15-200.97,200.97s90.15,200.97,200.97,200.97,200.96-90.15,200.96-200.97-90.15-200.97-200.96-200.97ZM540.33,744.95c-112.76,0-204.49-91.73-204.49-204.49s91.74-204.49,204.49-204.49,204.49,91.73,204.49,204.49-91.74,204.49-204.49,204.49Z"/>
        <path class="cls-3" d="M540.33,324.74c-118.95,0-215.72,96.77-215.72,215.72s96.77,215.72,215.72,215.72,215.71-96.77,215.71-215.72-96.77-215.72-215.71-215.72ZM540.33,759.7c-120.89,0-219.24-98.35-219.24-219.24s98.35-219.24,219.24-219.24,219.24,98.35,219.24,219.24-98.35,219.24-219.24,219.24Z"/>
        <path class="cls-3" d="M540.33,309.99c-127.08,0-230.47,103.39-230.47,230.47s103.39,230.47,230.47,230.47,230.46-103.39,230.46-230.47-103.38-230.47-230.46-230.47ZM540.33,774.45c-129.02,0-233.99-104.97-233.99-233.99s104.97-233.99,233.99-233.99,233.99,104.97,233.99,233.99-104.97,233.99-233.99,233.99Z"/>
        <path class="cls-3" d="M540.33,295.24c-135.22,0-245.22,110-245.22,245.22s110.01,245.22,245.22,245.22,245.21-110,245.21-245.22-110-245.22-245.21-245.22ZM540.33,789.2c-137.16,0-248.75-111.58-248.75-248.74s111.59-248.75,248.75-248.75,248.74,111.58,248.74,248.75-111.59,248.74-248.74,248.74Z"/>
        <path class="cls-3" d="M540.33,280.49c-143.35,0-259.97,116.62-259.97,259.97s116.63,259.97,259.97,259.97,259.97-116.62,259.97-259.97-116.62-259.97-259.97-259.97ZM540.33,803.95c-145.29,0-263.5-118.2-263.5-263.49s118.21-263.5,263.5-263.5,263.49,118.2,263.49,263.5-118.21,263.49-263.49,263.49Z"/>
        <path class="cls-3" d="M540.33,265.74c-151.48,0-274.72,123.24-274.72,274.72s123.24,274.72,274.72,274.72,274.72-123.24,274.72-274.72-123.23-274.72-274.72-274.72ZM540.33,818.7c-153.43,0-278.25-124.82-278.25-278.24s124.82-278.25,278.25-278.25,278.24,124.82,278.24,278.25-124.82,278.24-278.24,278.24Z"/>
        <path class="cls-3" d="M540.33,250.99c-159.62,0-289.48,129.86-289.48,289.48s129.86,289.47,289.48,289.47,289.47-129.86,289.47-289.47-129.85-289.48-289.47-289.48ZM540.33,833.46c-161.56,0-293-131.44-293-292.99s131.44-293,293-293,292.99,131.44,292.99,293-131.44,292.99-292.99,292.99Z"/>
        <path class="cls-3" d="M540.33,236.23c-167.75,0-304.23,136.47-304.23,304.23s136.48,304.22,304.23,304.22,304.22-136.47,304.22-304.22-136.47-304.23-304.22-304.23ZM540.33,848.21c-169.69,0-307.75-138.05-307.75-307.75s138.06-307.75,307.75-307.75,307.74,138.05,307.74,307.75-138.06,307.75-307.74,307.75Z"/>
        <path class="cls-3" d="M540.33,221.48c-175.88,0-318.98,143.09-318.98,318.98s143.1,318.97,318.98,318.97,318.97-143.09,318.97-318.97-143.09-318.98-318.97-318.98ZM540.33,862.96c-177.83,0-322.5-144.67-322.5-322.5s144.67-322.5,322.5-322.5,322.49,144.67,322.49,322.5-144.67,322.5-322.49,322.5Z"/>
        <path class="cls-3" d="M540.33,206.73c-184.02,0-333.73,149.71-333.73,333.73s149.71,333.72,333.73,333.72,333.72-149.71,333.72-333.72-149.7-333.73-333.72-333.73ZM540.33,877.71c-185.96,0-337.25-151.29-337.25-337.25s151.29-337.25,337.25-337.25,337.24,151.29,337.24,337.25-151.29,337.25-337.24,337.25Z"/>
        <path class="cls-3" d="M540.33,191.98c-192.15,0-348.48,156.33-348.48,348.48s156.33,348.47,348.48,348.47,348.47-156.33,348.47-348.47-156.32-348.48-348.47-348.48ZM540.33,892.46c-194.09,0-352-157.91-352-352s157.91-352,352-352,351.99,157.91,351.99,352-157.91,352-351.99,352Z"/>
        <path class="cls-3" d="M540.33,177.23c-200.28,0-363.23,162.94-363.23,363.23s162.95,363.23,363.23,363.23,363.22-162.94,363.22-363.23-162.94-363.23-363.22-363.23ZM540.33,907.21c-202.23,0-366.75-164.52-366.75-366.75s164.53-366.75,366.75-366.75,366.74,164.52,366.74,366.75-164.53,366.75-366.74,366.75Z"/>
        <path class="cls-3" d="M540.33,162.48c-208.42,0-377.98,169.56-377.98,377.98s169.57,377.98,377.98,377.98,377.97-169.56,377.97-377.98-169.55-377.98-377.97-377.98ZM540.33,921.96c-210.36,0-381.51-171.14-381.51-381.5s171.14-381.51,381.51-381.51,381.49,171.14,381.49,381.51-171.14,381.5-381.49,381.5Z"/>
        <path class="cls-3" d="M540.33,147.73c-216.55,0-392.73,176.18-392.73,392.73s176.18,392.73,392.73,392.73,392.72-176.18,392.72-392.73-176.17-392.73-392.72-392.73ZM540.33,936.71c-218.5,0-396.26-177.76-396.26-396.25s177.76-396.26,396.26-396.26,396.24,177.76,396.24,396.26-177.76,396.25-396.24,396.25Z"/>
        <path class="cls-3" d="M540.33,132.98c-224.68,0-407.48,182.79-407.48,407.48s182.8,407.48,407.48,407.48,407.47-182.79,407.47-407.48-182.79-407.48-407.47-407.48ZM540.33,951.46c-226.63,0-411.01-184.37-411.01-411s184.38-411.01,411.01-411.01,410.99,184.37,410.99,411.01-184.38,411-410.99,411Z"/>
        <path class="cls-3" d="M540.33,118.23c-232.82,0-422.24,189.41-422.24,422.24s189.42,422.23,422.24,422.23,422.22-189.41,422.22-422.23S773.15,118.23,540.33,118.23ZM540.33,966.21c-234.76,0-425.76-190.99-425.76-425.75S305.56,114.7,540.33,114.7s425.75,190.99,425.75,425.76-190.99,425.75-425.75,425.75Z"/>
        <path class="cls-3" d="M540.33,103.47c-240.95,0-436.99,196.03-436.99,436.99s196.04,436.98,436.99,436.98,436.97-196.03,436.97-436.98S781.28,103.47,540.33,103.47ZM540.33,980.96c-242.9,0-440.51-197.61-440.51-440.5S297.43,99.95,540.33,99.95s440.5,197.61,440.5,440.51-197.61,440.5-440.5,440.5Z"/>
        <path class="cls-3" d="M540.33,88.72c-249.08,0-451.74,202.65-451.74,451.74s202.65,451.73,451.74,451.73,451.72-202.65,451.72-451.73S789.41,88.72,540.33,88.72ZM540.33,995.71c-251.03,0-455.26-204.23-455.26-455.25S289.3,85.2,540.33,85.2s455.25,204.23,455.25,455.26-204.23,455.25-455.25,455.25Z"/>
        <path class="cls-3" d="M540.33,73.97c-257.22,0-466.49,209.26-466.49,466.49s209.27,466.48,466.49,466.48,466.47-209.26,466.47-466.48S797.55,73.97,540.33,73.97ZM540.33,1010.47c-259.17,0-470.01-210.84-470.01-470S281.16,70.45,540.33,70.45s470,210.84,470,470.01-210.85,470-470,470Z"/>
        <path class="cls-3" d="M540.33,59.22c-265.35,0-481.24,215.88-481.24,481.24s215.89,481.23,481.24,481.23,481.22-215.88,481.22-481.23S805.68,59.22,540.33,59.22ZM540.33,1025.22c-267.3,0-484.76-217.46-484.76-484.76S273.03,55.7,540.33,55.7s484.75,217.46,484.75,484.76-217.46,484.76-484.75,484.76Z"/>
        <path class="cls-3" d="M540.33,44.47c-273.48,0-495.99,222.5-495.99,495.99s222.51,495.98,495.99,495.98,495.97-222.5,495.97-495.98S813.81,44.47,540.33,44.47ZM540.33,1039.97c-275.43,0-499.51-224.08-499.51-499.51S264.89,40.95,540.33,40.95s499.5,224.08,499.5,499.51-224.08,499.51-499.5,499.51Z"/>
        <path class="cls-3" d="M540.33,29.72C258.71,29.72,29.59,258.84,29.59,540.46s229.12,510.73,510.74,510.73,510.73-229.12,510.73-510.73S821.95,29.72,540.33,29.72ZM540.33,1054.72c-283.57,0-514.27-230.7-514.27-514.26S256.76,26.2,540.33,26.2s514.25,230.7,514.25,514.27-230.7,514.26-514.25,514.26Z"/>
        <path class="cls-3" d="M540.33,14.97C250.58,14.97,14.84,250.7,14.84,540.46s235.74,525.48,525.49,525.48,525.48-235.73,525.48-525.48S830.08,14.97,540.33,14.97ZM540.33,1069.47c-291.7,0-529.02-237.31-529.02-529.01S248.63,11.44,540.33,11.44s529,237.31,529,529.02-237.31,529.01-529,529.01Z"/>
      </g>
    </g>
  </g>
</svg>